<svg xmlns="http://www.w3.org/2000/svg" width="320" height="320"><rect x="80" y="60" width="20" height="20" fill="rgb(241, 19, 19)" /><rect x="100" y="60" width="20" height="20" fill="rgb(241, 19, 19)" /><rect x="120" y="60" width="20" height="20" fill="rgb(240, 15, 15)" /><rect x="200" y="60" width="20" height="20" fill="rgb(241, 19, 19)" /><rect x="220" y="60" width="20" height="20" fill="rgb(241, 19, 19)" /><rect x="240" y="60" width="20" height="20" fill="rgb(241, 19, 19)" /><rect x="60" y="80" width="20" height="20" fill="rgb(241, 19, 19)" /><rect x="80" y="80" width="20" height="20" fill="rgb(241, 19, 19)" /><rect x="100" y="80" width="20" height="20" fill="rgb(255, 255, 255)" /><rect x="120" y="80" width="20" height="20" fill="rgb(241, 19, 19)" /><rect x="140" y="80" width="20" height="20" fill="rgb(241, 19, 19)" /><rect x="180" y="80" width="20" height="20" fill="rgb(241, 19, 19)" /><rect x="200" y="80" width="20" height="20" fill="rgb(241, 19, 19)" /><rect x="220" y="80" width="20" height="20" fill="rgb(255, 255, 255)" /><rect x="240" y="80" width="20" height="20" fill="rgb(255, 255, 255)" /><rect x="260" y="80" width="20" height="20" fill="rgb(241, 19, 19)" /><rect x="60" y="100" width="20" height="20" fill="rgb(241, 19, 19)" /><rect x="80" y="100" width="20" height="20" fill="rgb(241, 19, 19)" /><rect x="100" y="100" width="20" height="20" fill="rgb(241, 19, 19)" /><rect x="120" y="100" width="20" height="20" fill="rgb(255, 255, 255)" /><rect x="140" y="100" width="20" height="20" fill="rgb(241, 19, 19)" /><rect x="160" y="100" width="20" height="20" fill="rgb(241, 19, 19)" /><rect x="180" y="100" width="20" height="20" fill="rgb(241, 19, 19)" /><rect x="200" y="100" width="20" height="20" fill="rgb(241, 19, 19)" /><rect x="220" y="100" width="20" height="20" fill="rgb(241, 19, 19)" /><rect x="240" y="100" width="20" height="20" fill="rgb(255, 255, 255)" /><rect x="260" y="100" width="20" height="20" fill="rgb(241, 19, 19)" /><rect x="80" y="120" width="20" height="20" fill="rgb(241, 19, 19)" /><rect x="100" y="120" width="20" height="20" fill="rgb(241, 19, 19)" /><rect x="120" y="120" width="20" height="20" fill="rgb(241, 19, 19)" /><rect x="140" y="120" width="20" height="20" fill="rgb(241, 19, 19)" /><rect x="160" y="120" width="20" height="20" fill="rgb(241, 19, 19)" /><rect x="180" y="120" width="20" height="20" fill="rgb(241, 19, 19)" /><rect x="200" y="120" width="20" height="20" fill="rgb(241, 19, 19)" /><rect x="220" y="120" width="20" height="20" fill="rgb(241, 19, 19)" /><rect x="240" y="120" width="20" height="20" fill="rgb(241, 19, 19)" /><rect x="100" y="140" width="20" height="20" fill="rgb(241, 19, 19)" /><rect x="120" y="140" width="20" height="20" fill="rgb(241, 19, 19)" /><rect x="140" y="140" width="20" height="20" fill="rgb(241, 19, 19)" /><rect x="160" y="140" width="20" height="20" fill="rgb(241, 19, 19)" /><rect x="180" y="140" width="20" height="20" fill="rgb(241, 19, 19)" /><rect x="200" y="140" width="20" height="20" fill="rgb(255, 255, 255)" /><rect x="220" y="140" width="20" height="20" fill="rgb(241, 19, 19)" /><rect x="120" y="160" width="20" height="20" fill="rgb(241, 19, 19)" /><rect x="140" y="160" width="20" height="20" fill="rgb(241, 19, 19)" /><rect x="160" y="160" width="20" height="20" fill="rgb(241, 19, 19)" /><rect x="180" y="160" width="20" height="20" fill="rgb(255, 255, 255)" /><rect x="200" y="160" width="20" height="20" fill="rgb(241, 19, 19)" /><rect x="140" y="180" width="20" height="20" fill="rgb(241, 19, 19)" /><rect x="160" y="180" width="20" height="20" fill="rgb(240, 15, 15)" /><rect x="180" y="180" width="20" height="20" fill="rgb(241, 19, 19)" /><rect x="40" y="200" width="20" height="20" fill="rgb(241, 19, 19)" /><rect x="100" y="200" width="20" height="20" fill="rgb(241, 19, 19)" /><rect x="160" y="200" width="20" height="20" fill="rgb(241, 19, 19)" /><rect x="200" y="200" width="20" height="20" fill="rgb(241, 19, 19)" /><rect x="220" y="200" width="20" height="20" fill="rgb(241, 19, 19)" /><rect x="260" y="200" width="20" height="20" fill="rgb(241, 19, 19)" /><rect x="280" y="200" width="20" height="20" fill="rgb(241, 19, 19)" /><rect x="20" y="220" width="20" height="20" fill="rgb(241, 19, 19)" /><rect x="40" y="220" width="20" height="20" fill="rgb(241, 19, 19)" /><rect x="60" y="220" width="20" height="20" fill="rgb(241, 19, 19)" /><rect x="80" y="220" width="20" height="20" fill="rgb(241, 19, 19)" /><rect x="120" y="220" width="20" height="20" fill="rgb(241, 19, 19)" /><rect x="200" y="220" width="20" height="20" fill="rgb(241, 19, 19)" /><rect x="220" y="220" width="20" height="20" fill="rgb(241, 19, 19)" /><rect x="240" y="220" width="20" height="20" fill="rgb(241, 19, 19)" /><rect x="260" y="220" width="20" height="20" fill="rgb(255, 255, 255)" /><rect x="280" y="220" width="20" height="20" fill="rgb(241, 19, 19)" /><rect x="40" y="240" width="20" height="20" fill="rgb(241, 19, 19)" /><rect x="60" y="240" width="20" height="20" fill="rgb(241, 19, 19)" /><rect x="100" y="240" width="20" height="20" fill="rgb(241, 19, 19)" /><rect x="220" y="240" width="20" height="20" fill="rgb(241, 19, 19)" /><rect x="240" y="240" width="20" height="20" fill="rgb(255, 255, 255)" /><rect x="260" y="240" width="20" height="20" fill="rgb(241, 19, 19)" /><rect x="60" y="260" width="20" height="20" fill="rgb(241, 19, 19)" /><rect x="80" y="260" width="20" height="20" fill="rgb(241, 19, 19)" /><rect x="240" y="260" width="20" height="20" fill="rgb(241, 19, 19)" /></svg>