<svg xmlns="http://www.w3.org/2000/svg" width="640" height="640"><rect x="180" y="80" width="20" height="20" fill="rgb(187, 134, 127)" /><rect x="200" y="80" width="20" height="20" fill="rgb(187, 134, 127)" /><rect x="220" y="80" width="20" height="20" fill="rgb(187, 134, 127)" /><rect x="260" y="80" width="20" height="20" fill="rgb(187, 134, 127)" /><rect x="280" y="80" width="20" height="20" fill="rgb(187, 134, 127)" /><rect x="300" y="80" width="20" height="20" fill="rgb(187, 134, 127)" /><rect x="320" y="80" width="20" height="20" fill="rgb(187, 134, 127)" /><rect x="340" y="80" width="20" height="20" fill="rgb(187, 134, 127)" /><rect x="400" y="80" width="20" height="20" fill="rgb(187, 134, 127)" /><rect x="420" y="80" width="20" height="20" fill="rgb(187, 134, 127)" /><rect x="440" y="80" width="20" height="20" fill="rgb(187, 134, 127)" /><rect x="160" y="100" width="20" height="20" fill="rgb(159, 92, 80)" /><rect x="180" y="100" width="20" height="20" fill="rgb(159, 92, 80)" /><rect x="200" y="100" width="20" height="20" fill="rgb(187, 134, 127)" /><rect x="220" y="100" width="20" height="20" fill="rgb(187, 134, 127)" /><rect x="240" y="100" width="20" height="20" fill="rgb(187, 134, 127)" /><rect x="260" y="100" width="20" height="20" fill="rgb(187, 134, 127)" /><rect x="280" y="100" width="20" height="20" fill="rgb(187, 134, 127)" /><rect x="300" y="100" width="20" height="20" fill="rgb(187, 134, 127)" /><rect x="320" y="100" width="20" height="20" fill="rgb(187, 134, 127)" /><rect x="340" y="100" width="20" height="20" fill="rgb(187, 134, 127)" /><rect x="360" y="100" width="20" height="20" fill="rgb(187, 134, 127)" /><rect x="380" y="100" width="20" height="20" fill="rgb(187, 134, 127)" /><rect x="400" y="100" width="20" height="20" fill="rgb(187, 134, 127)" /><rect x="420" y="100" width="20" height="20" fill="rgb(187, 134, 127)" /><rect x="440" y="100" width="20" height="20" fill="rgb(187, 134, 127)" /><rect x="460" y="100" width="20" height="20" fill="rgb(187, 134, 127)" /><rect x="160" y="120" width="20" height="20" fill="rgb(159, 92, 80)" /><rect x="180" y="120" width="20" height="20" fill="rgb(159, 92, 80)" /><rect x="200" y="120" width="20" height="20" fill="rgb(159, 92, 80)" /><rect x="220" y="120" width="20" height="20" fill="rgb(187, 134, 127)" /><rect x="240" y="120" width="20" height="20" fill="rgb(187, 134, 127)" /><rect x="260" y="120" width="20" height="20" fill="rgb(187, 134, 127)" /><rect x="280" y="120" width="20" height="20" fill="rgb(187, 134, 127)" /><rect x="300" y="120" width="20" height="20" fill="rgb(187, 134, 127)" /><rect x="320" y="120" width="20" height="20" fill="rgb(187, 134, 127)" /><rect x="340" y="120" width="20" height="20" fill="rgb(187, 134, 127)" /><rect x="360" y="120" width="20" height="20" fill="rgb(187, 134, 127)" /><rect x="380" y="120" width="20" height="20" fill="rgb(187, 134, 127)" /><rect x="400" y="120" width="20" height="20" fill="rgb(159, 92, 80)" /><rect x="420" y="120" width="20" height="20" fill="rgb(159, 92, 80)" /><rect x="440" y="120" width="20" height="20" fill="rgb(159, 92, 80)" /><rect x="460" y="120" width="20" height="20" fill="rgb(159, 92, 80)" /><rect x="200" y="140" width="20" height="20" fill="rgb(187, 134, 127)" /><rect x="220" y="140" width="20" height="20" fill="rgb(185, 135, 127)" /><rect x="240" y="140" width="20" height="20" fill="rgb(80, 36, 27)" /><rect x="260" y="140" width="20" height="20" fill="rgb(80, 36, 27)" /><rect x="280" y="140" width="20" height="20" fill="rgb(187, 134, 127)" /><rect x="300" y="140" width="20" height="20" fill="rgb(187, 134, 127)" /><rect x="320" y="140" width="20" height="20" fill="rgb(187, 134, 127)" /><rect x="340" y="140" width="20" height="20" fill="rgb(80, 36, 27)" /><rect x="360" y="140" width="20" height="20" fill="rgb(80, 36, 27)" /><rect x="380" y="140" width="20" height="20" fill="rgb(187, 134, 127)" /><rect x="400" y="140" width="20" height="20" fill="rgb(187, 134, 127)" /><rect x="420" y="140" width="20" height="20" fill="rgb(159, 92, 80)" /><rect x="440" y="140" width="20" height="20" fill="rgb(159, 92, 80)" /><rect x="200" y="160" width="20" height="20" fill="rgb(187, 134, 127)" /><rect x="220" y="160" width="20" height="20" fill="rgb(80, 36, 27)" /><rect x="240" y="160" width="20" height="20" fill="rgb(255, 255, 255)" /><rect x="260" y="160" width="20" height="20" fill="rgb(80, 36, 27)" /><rect x="280" y="160" width="20" height="20" fill="rgb(187, 134, 127)" /><rect x="300" y="160" width="20" height="20" fill="rgb(187, 134, 127)" /><rect x="320" y="160" width="20" height="20" fill="rgb(187, 134, 127)" /><rect x="340" y="160" width="20" height="20" fill="rgb(80, 36, 27)" /><rect x="360" y="160" width="20" height="20" fill="rgb(255, 255, 255)" /><rect x="380" y="160" width="20" height="20" fill="rgb(80, 36, 27)" /><rect x="400" y="160" width="20" height="20" fill="rgb(187, 134, 127)" /><rect x="180" y="180" width="20" height="20" fill="rgb(187, 134, 127)" /><rect x="200" y="180" width="20" height="20" fill="rgb(187, 134, 127)" /><rect x="220" y="180" width="20" height="20" fill="rgb(80, 36, 27)" /><rect x="240" y="180" width="20" height="20" fill="rgb(80, 36, 27)" /><rect x="260" y="180" width="20" height="20" fill="rgb(255, 255, 255)" /><rect x="280" y="180" width="20" height="20" fill="rgb(187, 134, 127)" /><rect x="300" y="180" width="20" height="20" fill="rgb(187, 134, 127)" /><rect x="320" y="180" width="20" height="20" fill="rgb(187, 134, 127)" /><rect x="340" y="180" width="20" height="20" fill="rgb(80, 36, 27)" /><rect x="360" y="180" width="20" height="20" fill="rgb(80, 36, 27)" /><rect x="380" y="180" width="20" height="20" fill="rgb(255, 255, 255)" /><rect x="400" y="180" width="20" height="20" fill="rgb(187, 134, 127)" /><rect x="160" y="200" width="20" height="20" fill="rgb(187, 134, 127)" /><rect x="180" y="200" width="20" height="20" fill="rgb(247, 202, 237)" /><rect x="200" y="200" width="20" height="20" fill="rgb(247, 202, 237)" /><rect x="220" y="200" width="20" height="20" fill="rgb(187, 134, 127)" /><rect x="240" y="200" width="20" height="20" fill="rgb(187, 134, 127)" /><rect x="260" y="200" width="20" height="20" fill="rgb(187, 134, 127)" /><rect x="280" y="200" width="20" height="20" fill="rgb(77, 22, 15)" /><rect x="300" y="200" width="20" height="20" fill="rgb(77, 22, 15)" /><rect x="320" y="200" width="20" height="20" fill="rgb(77, 22, 15)" /><rect x="340" y="200" width="20" height="20" fill="rgb(187, 134, 127)" /><rect x="360" y="200" width="20" height="20" fill="rgb(187, 134, 127)" /><rect x="380" y="200" width="20" height="20" fill="rgb(247, 202, 237)" /><rect x="400" y="200" width="20" height="20" fill="rgb(247, 202, 237)" /><rect x="420" y="200" width="20" height="20" fill="rgb(187, 134, 127)" /><rect x="160" y="220" width="20" height="20" fill="rgb(187, 134, 127)" /><rect x="180" y="220" width="20" height="20" fill="rgb(187, 134, 127)" /><rect x="200" y="220" width="20" height="20" fill="rgb(187, 134, 127)" /><rect x="220" y="220" width="20" height="20" fill="rgb(187, 134, 127)" /><rect x="240" y="220" width="20" height="20" fill="rgb(187, 134, 127)" /><rect x="260" y="220" width="20" height="20" fill="rgb(187, 134, 127)" /><rect x="280" y="220" width="20" height="20" fill="rgb(187, 134, 127)" /><rect x="300" y="220" width="20" height="20" fill="rgb(77, 22, 15)" /><rect x="320" y="220" width="20" height="20" fill="rgb(187, 134, 127)" /><rect x="340" y="220" width="20" height="20" fill="rgb(187, 134, 127)" /><rect x="360" y="220" width="20" height="20" fill="rgb(187, 134, 127)" /><rect x="380" y="220" width="20" height="20" fill="rgb(187, 134, 127)" /><rect x="400" y="220" width="20" height="20" fill="rgb(187, 134, 127)" /><rect x="420" y="220" width="20" height="20" fill="rgb(187, 134, 127)" /><rect x="440" y="220" width="20" height="20" fill="rgb(187, 134, 127)" /><rect x="160" y="240" width="20" height="20" fill="rgb(187, 134, 127)" /><rect x="180" y="240" width="20" height="20" fill="rgb(187, 134, 127)" /><rect x="200" y="240" width="20" height="20" fill="rgb(187, 134, 127)" /><rect x="220" y="240" width="20" height="20" fill="rgb(187, 134, 127)" /><rect x="240" y="240" width="20" height="20" fill="rgb(187, 134, 127)" /><rect x="260" y="240" width="20" height="20" fill="rgb(187, 134, 127)" /><rect x="280" y="240" width="20" height="20" fill="rgb(187, 134, 127)" /><rect x="300" y="240" width="20" height="20" fill="rgb(77, 22, 15)" /><rect x="320" y="240" width="20" height="20" fill="rgb(187, 134, 127)" /><rect x="340" y="240" width="20" height="20" fill="rgb(187, 134, 127)" /><rect x="360" y="240" width="20" height="20" fill="rgb(187, 134, 127)" /><rect x="380" y="240" width="20" height="20" fill="rgb(187, 134, 127)" /><rect x="400" y="240" width="20" height="20" fill="rgb(187, 134, 127)" /><rect x="420" y="240" width="20" height="20" fill="rgb(187, 134, 127)" /><rect x="440" y="240" width="20" height="20" fill="rgb(187, 134, 127)" /><rect x="160" y="260" width="20" height="20" fill="rgb(187, 134, 127)" /><rect x="180" y="260" width="20" height="20" fill="rgb(187, 134, 127)" /><rect x="200" y="260" width="20" height="20" fill="rgb(187, 134, 127)" /><rect x="220" y="260" width="20" height="20" fill="rgb(187, 134, 127)" /><rect x="240" y="260" width="20" height="20" fill="rgb(79, 37, 28)" /><rect x="260" y="260" width="20" height="20" fill="rgb(187, 134, 127)" /><rect x="280" y="260" width="20" height="20" fill="rgb(79, 37, 28)" /><rect x="300" y="260" width="20" height="20" fill="rgb(77, 22, 15)" /><rect x="320" y="260" width="20" height="20" fill="rgb(79, 37, 28)" /><rect x="340" y="260" width="20" height="20" fill="rgb(187, 134, 127)" /><rect x="360" y="260" width="20" height="20" fill="rgb(79, 37, 28)" /><rect x="380" y="260" width="20" height="20" fill="rgb(187, 134, 127)" /><rect x="400" y="260" width="20" height="20" fill="rgb(187, 134, 127)" /><rect x="420" y="260" width="20" height="20" fill="rgb(187, 134, 127)" /><rect x="440" y="260" width="20" height="20" fill="rgb(187, 134, 127)" /><rect x="160" y="280" width="20" height="20" fill="rgb(187, 134, 127)" /><rect x="180" y="280" width="20" height="20" fill="rgb(187, 134, 127)" /><rect x="200" y="280" width="20" height="20" fill="rgb(187, 134, 127)" /><rect x="220" y="280" width="20" height="20" fill="rgb(187, 134, 127)" /><rect x="240" y="280" width="20" height="20" fill="rgb(187, 134, 127)" /><rect x="260" y="280" width="20" height="20" fill="rgb(79, 37, 28)" /><rect x="280" y="280" width="20" height="20" fill="rgb(244, 203, 235)" /><rect x="300" y="280" width="20" height="20" fill="rgb(244, 203, 235)" /><rect x="320" y="280" width="20" height="20" fill="rgb(244, 203, 235)" /><rect x="340" y="280" width="20" height="20" fill="rgb(79, 37, 28)" /><rect x="360" y="280" width="20" height="20" fill="rgb(187, 134, 127)" /><rect x="380" y="280" width="20" height="20" fill="rgb(187, 134, 127)" /><rect x="400" y="280" width="20" height="20" fill="rgb(187, 134, 127)" /><rect x="420" y="280" width="20" height="20" fill="rgb(187, 134, 127)" /><rect x="440" y="280" width="20" height="20" fill="rgb(187, 134, 127)" /><rect x="180" y="300" width="20" height="20" fill="rgb(187, 134, 127)" /><rect x="200" y="300" width="20" height="20" fill="rgb(187, 134, 127)" /><rect x="220" y="300" width="20" height="20" fill="rgb(187, 134, 127)" /><rect x="240" y="300" width="20" height="20" fill="rgb(187, 134, 127)" /><rect x="260" y="300" width="20" height="20" fill="rgb(187, 134, 127)" /><rect x="280" y="300" width="20" height="20" fill="rgb(79, 37, 28)" /><rect x="300" y="300" width="20" height="20" fill="rgb(79, 37, 28)" /><rect x="320" y="300" width="20" height="20" fill="rgb(79, 37, 28)" /><rect x="340" y="300" width="20" height="20" fill="rgb(187, 134, 127)" /><rect x="360" y="300" width="20" height="20" fill="rgb(187, 134, 127)" /><rect x="380" y="300" width="20" height="20" fill="rgb(187, 134, 127)" /><rect x="400" y="300" width="20" height="20" fill="rgb(187, 134, 127)" /><rect x="420" y="300" width="20" height="20" fill="rgb(187, 134, 127)" /><rect x="200" y="320" width="20" height="20" fill="rgb(187, 134, 127)" /><rect x="220" y="320" width="20" height="20" fill="rgb(187, 134, 127)" /><rect x="240" y="320" width="20" height="20" fill="rgb(187, 134, 127)" /><rect x="260" y="320" width="20" height="20" fill="rgb(187, 134, 127)" /><rect x="280" y="320" width="20" height="20" fill="rgb(187, 134, 127)" /><rect x="300" y="320" width="20" height="20" fill="rgb(185, 135, 127)" /><rect x="320" y="320" width="20" height="20" fill="rgb(187, 134, 127)" /><rect x="340" y="320" width="20" height="20" fill="rgb(187, 134, 127)" /><rect x="360" y="320" width="20" height="20" fill="rgb(187, 134, 127)" /><rect x="380" y="320" width="20" height="20" fill="rgb(187, 134, 127)" /><rect x="400" y="320" width="20" height="20" fill="rgb(187, 134, 127)" /><rect x="420" y="320" width="20" height="20" fill="transparent" /><rect x="460" y="320" width="20" height="20" fill="transparent" /><rect x="480" y="320" width="20" height="20" fill="transparent" /><rect x="200" y="340" width="20" height="20" fill="transparent" /><rect x="220" y="340" width="20" height="20" fill="transparent" /><rect x="240" y="340" width="20" height="20" fill="rgb(187, 134, 127)" /><rect x="260" y="340" width="20" height="20" fill="rgb(187, 134, 127)" /><rect x="280" y="340" width="20" height="20" fill="rgb(187, 134, 127)" /><rect x="300" y="340" width="20" height="20" fill="rgb(187, 134, 127)" /><rect x="320" y="340" width="20" height="20" fill="rgb(187, 134, 127)" /><rect x="340" y="340" width="20" height="20" fill="rgb(187, 134, 127)" /><rect x="360" y="340" width="20" height="20" fill="rgb(187, 134, 127)" /><rect x="380" y="340" width="20" height="20" fill="transparent" /><rect x="400" y="340" width="20" height="20" fill="transparent" /><rect x="420" y="340" width="20" height="20" fill="transparent" /><rect x="440" y="340" width="20" height="20" fill="transparent" /><rect x="460" y="340" width="20" height="20" fill="transparent" /><rect x="200" y="360" width="20" height="20" fill="transparent" /><rect x="220" y="360" width="20" height="20" fill="transparent" /><rect x="240" y="360" width="20" height="20" fill="transparent" /><rect x="260" y="360" width="20" height="20" fill="transparent" /><rect x="280" y="360" width="20" height="20" fill="rgb(185, 135, 127)" /><rect x="300" y="360" width="20" height="20" fill="rgb(185, 135, 127)" /><rect x="320" y="360" width="20" height="20" fill="rgb(187, 134, 127)" /><rect x="340" y="360" width="20" height="20" fill="transparent" /><rect x="360" y="360" width="20" height="20" fill="transparent" /><rect x="380" y="360" width="20" height="20" fill="transparent" /><rect x="400" y="360" width="20" height="20" fill="transparent" /><rect x="420" y="360" width="20" height="20" fill="transparent" /><rect x="440" y="360" width="20" height="20" fill="transparent" /><rect x="460" y="360" width="20" height="20" fill="transparent" /><rect x="160" y="380" width="20" height="20" fill="transparent" /><rect x="180" y="380" width="20" height="20" fill="transparent" /><rect x="200" y="380" width="20" height="20" fill="transparent" /><rect x="220" y="380" width="20" height="20" fill="transparent" /><rect x="240" y="380" width="20" height="20" fill="transparent" /><rect x="260" y="380" width="20" height="20" fill="transparent" /><rect x="280" y="380" width="20" height="20" fill="transparent" /><rect x="300" y="380" width="20" height="20" fill="transparent" /><rect x="320" y="380" width="20" height="20" fill="transparent" /><rect x="340" y="380" width="20" height="20" fill="transparent" /><rect x="360" y="380" width="20" height="20" fill="transparent" /><rect x="380" y="380" width="20" height="20" fill="transparent" /><rect x="400" y="380" width="20" height="20" fill="transparent" /><rect x="420" y="380" width="20" height="20" fill="transparent" /><rect x="440" y="380" width="20" height="20" fill="transparent" /><rect x="160" y="400" width="20" height="20" fill="transparent" /><rect x="180" y="400" width="20" height="20" fill="transparent" /><rect x="200" y="400" width="20" height="20" fill="transparent" /><rect x="220" y="400" width="20" height="20" fill="transparent" /><rect x="240" y="400" width="20" height="20" fill="transparent" /><rect x="260" y="400" width="20" height="20" fill="transparent" /><rect x="280" y="400" width="20" height="20" fill="transparent" /><rect x="300" y="400" width="20" height="20" fill="transparent" /><rect x="320" y="400" width="20" height="20" fill="transparent" /><rect x="340" y="400" width="20" height="20" fill="transparent" /><rect x="360" y="400" width="20" height="20" fill="transparent" /><rect x="380" y="400" width="20" height="20" fill="transparent" /><rect x="400" y="400" width="20" height="20" fill="transparent" /><rect x="420" y="400" width="20" height="20" fill="transparent" /><rect x="440" y="400" width="20" height="20" fill="transparent" /><rect x="460" y="400" width="20" height="20" fill="transparent" /><rect x="160" y="420" width="20" height="20" fill="transparent" /><rect x="180" y="420" width="20" height="20" fill="transparent" /><rect x="200" y="420" width="20" height="20" fill="transparent" /><rect x="220" y="420" width="20" height="20" fill="transparent" /><rect x="240" y="420" width="20" height="20" fill="transparent" /><rect x="260" y="420" width="20" height="20" fill="transparent" /><rect x="280" y="420" width="20" height="20" fill="transparent" /><rect x="300" y="420" width="20" height="20" fill="transparent" /><rect x="320" y="420" width="20" height="20" fill="transparent" /><rect x="340" y="420" width="20" height="20" fill="transparent" /><rect x="360" y="420" width="20" height="20" fill="transparent" /><rect x="380" y="420" width="20" height="20" fill="transparent" /><rect x="400" y="420" width="20" height="20" fill="transparent" /><rect x="420" y="420" width="20" height="20" fill="transparent" /><rect x="460" y="420" width="20" height="20" fill="transparent" /><rect x="140" y="440" width="20" height="20" fill="transparent" /><rect x="160" y="440" width="20" height="20" fill="transparent" /><rect x="180" y="440" width="20" height="20" fill="transparent" /><rect x="200" y="440" width="20" height="20" fill="transparent" /><rect x="220" y="440" width="20" height="20" fill="transparent" /><rect x="240" y="440" width="20" height="20" fill="transparent" /><rect x="260" y="440" width="20" height="20" fill="transparent" /><rect x="280" y="440" width="20" height="20" fill="transparent" /><rect x="300" y="440" width="20" height="20" fill="transparent" /><rect x="320" y="440" width="20" height="20" fill="transparent" /><rect x="340" y="440" width="20" height="20" fill="transparent" /><rect x="360" y="440" width="20" height="20" fill="transparent" /><rect x="380" y="440" width="20" height="20" fill="transparent" /><rect x="400" y="440" width="20" height="20" fill="transparent" /><rect x="420" y="440" width="20" height="20" fill="transparent" /><rect x="440" y="440" width="20" height="20" fill="transparent" /><rect x="480" y="440" width="20" height="20" fill="transparent" /><rect x="140" y="460" width="20" height="20" fill="transparent" /><rect x="160" y="460" width="20" height="20" fill="transparent" /><rect x="180" y="460" width="20" height="20" fill="transparent" /><rect x="200" y="460" width="20" height="20" fill="transparent" /><rect x="220" y="460" width="20" height="20" fill="transparent" /><rect x="240" y="460" width="20" height="20" fill="transparent" /><rect x="260" y="460" width="20" height="20" fill="transparent" /><rect x="280" y="460" width="20" height="20" fill="transparent" /><rect x="300" y="460" width="20" height="20" fill="transparent" /><rect x="320" y="460" width="20" height="20" fill="transparent" /><rect x="340" y="460" width="20" height="20" fill="transparent" /><rect x="360" y="460" width="20" height="20" fill="transparent" /><rect x="380" y="460" width="20" height="20" fill="transparent" /><rect x="400" y="460" width="20" height="20" fill="transparent" /><rect x="420" y="460" width="20" height="20" fill="transparent" /><rect x="440" y="460" width="20" height="20" fill="transparent" /><rect x="500" y="460" width="20" height="20" fill="transparent" /><rect x="80" y="480" width="20" height="20" fill="transparent" /><rect x="120" y="480" width="20" height="20" fill="transparent" /><rect x="140" y="480" width="20" height="20" fill="transparent" /><rect x="160" y="480" width="20" height="20" fill="transparent" /><rect x="180" y="480" width="20" height="20" fill="transparent" /><rect x="200" y="480" width="20" height="20" fill="transparent" /><rect x="220" y="480" width="20" height="20" fill="transparent" /><rect x="240" y="480" width="20" height="20" fill="transparent" /><rect x="260" y="480" width="20" height="20" fill="transparent" /><rect x="280" y="480" width="20" height="20" fill="transparent" /><rect x="300" y="480" width="20" height="20" fill="transparent" /><rect x="320" y="480" width="20" height="20" fill="transparent" /><rect x="340" y="480" width="20" height="20" fill="transparent" /><rect x="360" y="480" width="20" height="20" fill="transparent" /><rect x="380" y="480" width="20" height="20" fill="transparent" /><rect x="400" y="480" width="20" height="20" fill="transparent" /><rect x="420" y="480" width="20" height="20" fill="transparent" /><rect x="440" y="480" width="20" height="20" fill="transparent" /><rect x="460" y="480" width="20" height="20" fill="transparent" /><rect x="480" y="480" width="20" height="20" fill="transparent" /><rect x="500" y="480" width="20" height="20" fill="transparent" /><rect x="60" y="500" width="20" height="20" fill="transparent" /><rect x="80" y="500" width="20" height="20" fill="transparent" /><rect x="100" y="500" width="20" height="20" fill="transparent" /><rect x="120" y="500" width="20" height="20" fill="transparent" /><rect x="140" y="500" width="20" height="20" fill="transparent" /><rect x="160" y="500" width="20" height="20" fill="transparent" /><rect x="180" y="500" width="20" height="20" fill="transparent" /><rect x="200" y="500" width="20" height="20" fill="transparent" /><rect x="220" y="500" width="20" height="20" fill="transparent" /><rect x="240" y="500" width="20" height="20" fill="transparent" /><rect x="260" y="500" width="20" height="20" fill="transparent" /><rect x="280" y="500" width="20" height="20" fill="transparent" /><rect x="300" y="500" width="20" height="20" fill="transparent" /><rect x="320" y="500" width="20" height="20" fill="transparent" /><rect x="340" y="500" width="20" height="20" fill="transparent" /><rect x="360" y="500" width="20" height="20" fill="transparent" /><rect x="380" y="500" width="20" height="20" fill="transparent" /><rect x="400" y="500" width="20" height="20" fill="transparent" /><rect x="420" y="500" width="20" height="20" fill="transparent" /><rect x="440" y="500" width="20" height="20" fill="transparent" /><rect x="460" y="500" width="20" height="20" fill="transparent" /><rect x="480" y="500" width="20" height="20" fill="transparent" /><rect x="500" y="500" width="20" height="20" fill="transparent" /><rect x="60" y="520" width="20" height="20" fill="transparent" /><rect x="100" y="520" width="20" height="20" fill="transparent" /><rect x="120" y="520" width="20" height="20" fill="transparent" /><rect x="140" y="520" width="20" height="20" fill="transparent" /><rect x="160" y="520" width="20" height="20" fill="transparent" /><rect x="180" y="520" width="20" height="20" fill="transparent" /><rect x="200" y="520" width="20" height="20" fill="transparent" /><rect x="220" y="520" width="20" height="20" fill="transparent" /><rect x="240" y="520" width="20" height="20" fill="transparent" /><rect x="260" y="520" width="20" height="20" fill="transparent" /><rect x="280" y="520" width="20" height="20" fill="transparent" /><rect x="300" y="520" width="20" height="20" fill="transparent" /><rect x="320" y="520" width="20" height="20" fill="transparent" /><rect x="340" y="520" width="20" height="20" fill="transparent" /><rect x="360" y="520" width="20" height="20" fill="transparent" /><rect x="380" y="520" width="20" height="20" fill="transparent" /><rect x="400" y="520" width="20" height="20" fill="transparent" /><rect x="420" y="520" width="20" height="20" fill="transparent" /><rect x="440" y="520" width="20" height="20" fill="transparent" /><rect x="460" y="520" width="20" height="20" fill="transparent" /><rect x="480" y="520" width="20" height="20" fill="transparent" /><rect x="500" y="520" width="20" height="20" fill="transparent" /><rect x="80" y="540" width="20" height="20" fill="transparent" /><rect x="100" y="540" width="20" height="20" fill="transparent" /><rect x="120" y="540" width="20" height="20" fill="transparent" /><rect x="140" y="540" width="20" height="20" fill="transparent" /><rect x="160" y="540" width="20" height="20" fill="transparent" /><rect x="180" y="540" width="20" height="20" fill="transparent" /><rect x="200" y="540" width="20" height="20" fill="transparent" /><rect x="220" y="540" width="20" height="20" fill="transparent" /><rect x="240" y="540" width="20" height="20" fill="transparent" /><rect x="260" y="540" width="20" height="20" fill="transparent" /><rect x="280" y="540" width="20" height="20" fill="transparent" /><rect x="300" y="540" width="20" height="20" fill="transparent" /><rect x="320" y="540" width="20" height="20" fill="transparent" /><rect x="340" y="540" width="20" height="20" fill="transparent" /><rect x="360" y="540" width="20" height="20" fill="transparent" /><rect x="380" y="540" width="20" height="20" fill="transparent" /><rect x="400" y="540" width="20" height="20" fill="transparent" /><rect x="420" y="540" width="20" height="20" fill="transparent" /><rect x="440" y="540" width="20" height="20" fill="transparent" /><rect x="460" y="540" width="20" height="20" fill="transparent" /><rect x="480" y="540" width="20" height="20" fill="transparent" /><rect x="500" y="540" width="20" height="20" fill="transparent" /><rect x="100" y="560" width="20" height="20" fill="transparent" /><rect x="120" y="560" width="20" height="20" fill="transparent" /><rect x="140" y="560" width="20" height="20" fill="transparent" /><rect x="160" y="560" width="20" height="20" fill="transparent" /><rect x="180" y="560" width="20" height="20" fill="transparent" /><rect x="200" y="560" width="20" height="20" fill="transparent" /><rect x="220" y="560" width="20" height="20" fill="transparent" /><rect x="240" y="560" width="20" height="20" fill="transparent" /><rect x="260" y="560" width="20" height="20" fill="transparent" /><rect x="280" y="560" width="20" height="20" fill="transparent" /><rect x="300" y="560" width="20" height="20" fill="transparent" /><rect x="320" y="560" width="20" height="20" fill="transparent" /><rect x="340" y="560" width="20" height="20" fill="transparent" /><rect x="360" y="560" width="20" height="20" fill="transparent" /><rect x="380" y="560" width="20" height="20" fill="transparent" /><rect x="400" y="560" width="20" height="20" fill="transparent" /><rect x="420" y="560" width="20" height="20" fill="transparent" /><rect x="440" y="560" width="20" height="20" fill="transparent" /><rect x="460" y="560" width="20" height="20" fill="transparent" /><rect x="480" y="560" width="20" height="20" fill="transparent" /><rect x="500" y="560" width="20" height="20" fill="transparent" /><rect x="520" y="560" width="20" height="20" fill="transparent" /><rect x="60" y="580" width="20" height="20" fill="transparent" /><rect x="80" y="580" width="20" height="20" fill="transparent" /><rect x="100" y="580" width="20" height="20" fill="transparent" /><rect x="120" y="580" width="20" height="20" fill="transparent" /><rect x="140" y="580" width="20" height="20" fill="transparent" /><rect x="160" y="580" width="20" height="20" fill="transparent" /><rect x="180" y="580" width="20" height="20" fill="transparent" /><rect x="200" y="580" width="20" height="20" fill="transparent" /><rect x="220" y="580" width="20" height="20" fill="transparent" /><rect x="240" y="580" width="20" height="20" fill="transparent" /><rect x="260" y="580" width="20" height="20" fill="transparent" /><rect x="280" y="580" width="20" height="20" fill="transparent" /><rect x="300" y="580" width="20" height="20" fill="transparent" /><rect x="320" y="580" width="20" height="20" fill="transparent" /><rect x="340" y="580" width="20" height="20" fill="transparent" /><rect x="360" y="580" width="20" height="20" fill="transparent" /><rect x="380" y="580" width="20" height="20" fill="transparent" /><rect x="400" y="580" width="20" height="20" fill="transparent" /><rect x="420" y="580" width="20" height="20" fill="transparent" /><rect x="440" y="580" width="20" height="20" fill="transparent" /><rect x="460" y="580" width="20" height="20" fill="transparent" /><rect x="480" y="580" width="20" height="20" fill="transparent" /><rect x="500" y="580" width="20" height="20" fill="transparent" /><rect x="520" y="580" width="20" height="20" fill="transparent" /><rect x="120" y="600" width="20" height="20" fill="transparent" /><rect x="140" y="600" width="20" height="20" fill="transparent" /><rect x="160" y="600" width="20" height="20" fill="transparent" /><rect x="180" y="600" width="20" height="20" fill="transparent" /><rect x="200" y="600" width="20" height="20" fill="transparent" /><rect x="220" y="600" width="20" height="20" fill="transparent" /><rect x="240" y="600" width="20" height="20" fill="transparent" /><rect x="260" y="600" width="20" height="20" fill="transparent" /><rect x="280" y="600" width="20" height="20" fill="transparent" /><rect x="300" y="600" width="20" height="20" fill="transparent" /><rect x="320" y="600" width="20" height="20" fill="transparent" /><rect x="340" y="600" width="20" height="20" fill="transparent" /><rect x="360" y="600" width="20" height="20" fill="transparent" /><rect x="380" y="600" width="20" height="20" fill="transparent" /><rect x="400" y="600" width="20" height="20" fill="transparent" /><rect x="420" y="600" width="20" height="20" fill="transparent" /><rect x="440" y="600" width="20" height="20" fill="transparent" /><rect x="460" y="600" width="20" height="20" fill="transparent" /><rect x="480" y="600" width="20" height="20" fill="transparent" /><rect x="500" y="600" width="20" height="20" fill="transparent" /><rect x="20" y="620" width="20" height="20" fill="transparent" /><rect x="40" y="620" width="20" height="20" fill="transparent" /><rect x="60" y="620" width="20" height="20" fill="transparent" /><rect x="80" y="620" width="20" height="20" fill="transparent" /><rect x="100" y="620" width="20" height="20" fill="transparent" /><rect x="120" y="620" width="20" height="20" fill="transparent" /><rect x="140" y="620" width="20" height="20" fill="transparent" /><rect x="160" y="620" width="20" height="20" fill="transparent" /><rect x="180" y="620" width="20" height="20" fill="transparent" /><rect x="200" y="620" width="20" height="20" fill="transparent" /><rect x="220" y="620" width="20" height="20" fill="transparent" /><rect x="240" y="620" width="20" height="20" fill="transparent" /><rect x="260" y="620" width="20" height="20" fill="transparent" /><rect x="280" y="620" width="20" height="20" fill="transparent" /><rect x="300" y="620" width="20" height="20" fill="transparent" /><rect x="320" y="620" width="20" height="20" fill="transparent" /><rect x="340" y="620" width="20" height="20" fill="transparent" /><rect x="360" y="620" width="20" height="20" fill="transparent" /><rect x="380" y="620" width="20" height="20" fill="transparent" /><rect x="480" y="620" width="20" height="20" fill="transparent" /><rect x="500" y="620" width="20" height="20" fill="transparent" /></svg>